<svg xmlns="http://www.w3.org/2000/svg" viewBox="0 0 512 512" width="512" height="512">
  <circle cx="256" cy="256" r="160" fill="#FFFFFF" stroke="#CBD5E1" stroke-width="8" />
  <circle cx="256" cy="256" r="140" fill="#F0F9FF" />
  <circle cx="256" cy="256" r="140" fill="none" stroke="#E2E8F0" stroke-width="3" />
  <rect x="180" y="166" width="74" height="180" rx="12" fill="#93C5FD" />
  <rect x="258" y="166" width="74" height="180" rx="12" fill="#67E8F9" />
  <line x1="195" y1="196" x2="235" y2="196" stroke="#FFFFFF" stroke-width="5.5" stroke-linecap="round" />
  <line x1="195" y1="216" x2="225" y2="216" stroke="#FFFFFF" stroke-width="5.5" stroke-linecap="round" />
  <line x1="195" y1="236" x2="240" y2="236" stroke="#FFFFFF" stroke-width="5.5" stroke-linecap="round" />
  <line x1="277" y1="196" x2="317" y2="196" stroke="#FFFFFF" stroke-width="5.5" stroke-linecap="round" />
  <line x1="287" y1="216" x2="317" y2="216" stroke="#FFFFFF" stroke-width="5.5" stroke-linecap="round" />
  <line x1="272" y1="236" x2="317" y2="236" stroke="#FFFFFF" stroke-width="5.5" stroke-linecap="round" />
  <path d="M217 258 L229 265 L229 279 Q229 292, 217 298 Q205 292, 205 279 L205 265 Z"
        fill="none" stroke="#FFFFFF" stroke-width="7" stroke-linejoin="round" />
  <polyline points="210,279 215,285 225,272"
            fill="none" stroke="#FFFFFF" stroke-width="6" stroke-linecap="round" stroke-linejoin="round" />
  <line x1="295" y1="298" x2="295" y2="268" stroke="#FFFFFF" stroke-width="8" stroke-linecap="round" />
  <path d="M284 278 L295 262 L306 278" fill="none" stroke="#FFFFFF" stroke-width="8" stroke-linecap="round" stroke-linejoin="round" />
</svg>